HIERARCHY
ROOT Hips
{
	OFFSET 0.091440 88.258293 2.461285
	CHANNELS 6 Xposition Yposition Zposition Zrotation Yrotation Xrotation 
	JOINT Spine
	{
		OFFSET -0.000000 8.814246 -2.080107
		CHANNELS 3 Zrotation Yrotation Xrotation
		JOINT Spine1
		{
			OFFSET 0.000000 8.844141 -0.000000
			CHANNELS 3 Zrotation Yrotation Xrotation
			JOINT Spine2
			{
				OFFSET 0.000000 11.682268 -0.000000
				CHANNELS 3 Zrotation Yrotation Xrotation
				JOINT Spine3
				{
					OFFSET 0.000000 11.746700 -0.000000
					CHANNELS 3 Zrotation Yrotation Xrotation
					JOINT Neck
					{
						OFFSET -0.000000 17.658264 0.000000
						CHANNELS 3 Zrotation Yrotation Xrotation
						JOINT Neck1
						{
							OFFSET 0.000000 5.101515 -0.000000
							CHANNELS 3 Zrotation Yrotation Xrotation
							JOINT Head
							{
								OFFSET 0.000000 5.101515 -0.000000
								CHANNELS 3 Zrotation Yrotation Xrotation
								JOINT HeadEnd
								{
									OFFSET -0.000000 11.655085 0.000000
									CHANNELS 3 Zrotation Yrotation Xrotation
									End Site
									{
										OFFSET 0.000000 0.000000 0.000000
									}
								}
							}
						}
					}
					JOINT RightShoulder
					{
						OFFSET -2.625389 11.175210 -0.000000
						CHANNELS 3 Zrotation Yrotation Xrotation
						JOINT RightArm
						{
							OFFSET 0.000000 10.434715 -0.000000
							CHANNELS 3 Zrotation Yrotation Xrotation
							JOINT RightForeArm
							{
								OFFSET 0.000000 29.628420 -0.000000
								CHANNELS 3 Zrotation Yrotation Xrotation
								JOINT RightHand
								{
									OFFSET -0.000000 22.857611 0.000000
									CHANNELS 3 Zrotation Yrotation Xrotation
									JOINT RightHandThumb1
									{
										OFFSET -2.867323 3.959563 2.944291
										CHANNELS 3 Zrotation Yrotation Xrotation
										JOINT RightHandThumb2
										{
											OFFSET -0.000000 3.350399 0.000000
											CHANNELS 3 Zrotation Yrotation Xrotation
											JOINT RightHandThumb3
											{
												OFFSET -0.000000 3.756509 0.000000
												CHANNELS 3 Zrotation Yrotation Xrotation
												JOINT RightHandThumb4
												{
													OFFSET 0.000000 3.147345 -0.000000
													CHANNELS 3 Zrotation Yrotation Xrotation
													End Site
													{
														OFFSET 0.000000 0.000000 0.000000
													}
												}
											}
										}
									}
									JOINT RightHandIndex1
									{
										OFFSET -0.086752 10.030893 2.345280
										CHANNELS 3 Zrotation Yrotation Xrotation
										JOINT RightHandIndex2
										{
											OFFSET 0.000000 4.061090 -0.000000
											CHANNELS 3 Zrotation Yrotation Xrotation
											JOINT RightHandIndex3
											{
												OFFSET -0.000000 3.248873 0.000000
												CHANNELS 3 Zrotation Yrotation Xrotation
												JOINT RightHandIndex4
												{
													OFFSET 0.000000 2.639709 -0.000000
													CHANNELS 3 Zrotation Yrotation Xrotation
													End Site
													{
														OFFSET 0.000000 0.000000 0.000000
													}
												}
											}
										}
									}
									JOINT RightHandMiddle1
									{
										OFFSET 0.104102 9.502952 0.006768
										CHANNELS 3 Zrotation Yrotation Xrotation
										JOINT RightHandMiddle2
										{
											OFFSET -0.000000 4.568727 0.000000
											CHANNELS 3 Zrotation Yrotation Xrotation
											JOINT RightHandMiddle3
											{
												OFFSET -0.000000 3.654981 0.000000
												CHANNELS 3 Zrotation Yrotation Xrotation
												JOINT RightHandMiddle4
												{
													OFFSET -0.000000 2.741236 0.000000
													CHANNELS 3 Zrotation Yrotation Xrotation
													End Site
													{
														OFFSET 0.000000 0.000000 0.000000
													}
												}
											}
										}
									}
									JOINT RightHandRing1
									{
										OFFSET 0.086752 8.921708 -2.267442
										CHANNELS 3 Zrotation Yrotation Xrotation
										JOINT RightHandRing2
										{
											OFFSET -0.000000 4.061090 0.000000
											CHANNELS 3 Zrotation Yrotation Xrotation
											JOINT RightHandRing3
											{
												OFFSET -0.000000 3.654981 0.000000
												CHANNELS 3 Zrotation Yrotation Xrotation
												JOINT RightHandRing4
												{
													OFFSET 0.000000 2.741236 0.000000
													CHANNELS 3 Zrotation Yrotation Xrotation
													End Site
													{
														OFFSET 0.000000 0.000000 0.000000
													}
												}
											}
										}
									}
									JOINT RightHandPinky1
									{
										OFFSET -0.173504 7.976997 -4.467199
										CHANNELS 3 Zrotation Yrotation Xrotation
										JOINT RightHandPinky2
										{
											OFFSET -0.000000 3.350399 -0.000000
											CHANNELS 3 Zrotation Yrotation Xrotation
											JOINT RightHandPinky3
											{
												OFFSET -0.000000 2.842763 -0.000000
												CHANNELS 3 Zrotation Yrotation Xrotation
												JOINT RightHandPinky4
												{
													OFFSET -0.000000 2.639709 -0.000000
													CHANNELS 3 Zrotation Yrotation Xrotation
													End Site
													{
														OFFSET 0.000000 0.000000 0.000000
													}
												}
											}
										}
									}
									JOINT RightForeArmEnd
									{
										OFFSET 0.000000 0.000000 0.000000
										CHANNELS 3 Zrotation Yrotation Xrotation
										End Site
										{
											OFFSET 0.000000 0.000000 0.000000
										}
									}
								}
								JOINT RightArmEnd
								{
									OFFSET 0.000000 0.000000 0.000000
									CHANNELS 3 Zrotation Yrotation Xrotation
									End Site
									{
										OFFSET 0.000000 0.000000 0.000000
									}
								}
							}
						}
					}
					JOINT LeftShoulder
					{
						OFFSET 2.625389 11.175210 0.000000
						CHANNELS 3 Zrotation Yrotation Xrotation
						JOINT LeftArm
						{
							OFFSET -0.000000 10.813635 -0.000000
							CHANNELS 3 Zrotation Yrotation Xrotation
							JOINT LeftForeArm
							{
								OFFSET -0.000000 28.724781 -0.000000
								CHANNELS 3 Zrotation Yrotation Xrotation
								JOINT LeftHand
								{
									OFFSET 0.644384 25.716167 -0.328871
									CHANNELS 3 Zrotation Yrotation Xrotation
									JOINT LeftHandThumb1
									{
										OFFSET 2.867323 3.959563 2.944291
										CHANNELS 3 Zrotation Yrotation Xrotation
										JOINT LeftHandThumb2
										{
											OFFSET -0.000000 3.350399 0.000000
											CHANNELS 3 Zrotation Yrotation Xrotation
											JOINT LeftHandThumb3
											{
												OFFSET -0.000000 3.756509 -0.000000
												CHANNELS 3 Zrotation Yrotation Xrotation
												JOINT LeftHandThumb4
												{
													OFFSET 0.000000 3.100000 0.000000
													CHANNELS 3 Zrotation Yrotation Xrotation
													End Site
													{
														OFFSET 0.000000 0.000000 0.000000
													}
												}
											}
										}
									}
									JOINT LeftHandIndex1
									{
										OFFSET 0.086752 10.030893 2.345280
										CHANNELS 3 Zrotation Yrotation Xrotation
										JOINT LeftHandIndex2
										{
											OFFSET -0.000000 4.061090 0.000000
											CHANNELS 3 Zrotation Yrotation Xrotation
											JOINT LeftHandIndex3
											{
												OFFSET -0.000000 3.248873 -0.000000
												CHANNELS 3 Zrotation Yrotation Xrotation
												JOINT LeftHandIndex4
												{
													OFFSET -0.000000 2.639709 -0.000000
													CHANNELS 3 Zrotation Yrotation Xrotation
													End Site
													{
														OFFSET 0.000000 0.000000 0.000000
													}
												}
											}
										}
									}
									JOINT LeftHandMiddle1
									{
										OFFSET -0.104102 9.502952 0.006768
										CHANNELS 3 Zrotation Yrotation Xrotation
										JOINT LeftHandMiddle2
										{
											OFFSET -0.000000 4.568727 -0.000000
											CHANNELS 3 Zrotation Yrotation Xrotation
											JOINT LeftHandMiddle3
											{
												OFFSET 0.000000 3.654981 -0.000000
												CHANNELS 3 Zrotation Yrotation Xrotation
												JOINT LeftHandMiddle4
												{
													OFFSET -0.000000 2.741236 -0.000000
													CHANNELS 3 Zrotation Yrotation Xrotation
													End Site
													{
														OFFSET 0.000000 0.000000 0.000000
													}
												}
											}
										}
									}
									JOINT LeftHandRing1
									{
										OFFSET -0.086752 8.921708 -2.267442
										CHANNELS 3 Zrotation Yrotation Xrotation
										JOINT LeftHandRing2
										{
											OFFSET 0.000000 4.061090 0.000000
											CHANNELS 3 Zrotation Yrotation Xrotation
											JOINT LeftHandRing3
											{
												OFFSET 0.000000 3.654981 -0.000000
												CHANNELS 3 Zrotation Yrotation Xrotation
												JOINT LeftHandRing4
												{
													OFFSET 0.000000 2.741236 -0.000000
													CHANNELS 3 Zrotation Yrotation Xrotation
													End Site
													{
														OFFSET 0.000000 0.000000 0.000000
													}
												}
											}
										}
									}
									JOINT LeftHandPinky1
									{
										OFFSET 0.173504 7.976997 -4.467199
										CHANNELS 3 Zrotation Yrotation Xrotation
										JOINT LeftHandPinky2
										{
											OFFSET -0.000000 3.350399 0.000000
											CHANNELS 3 Zrotation Yrotation Xrotation
											JOINT LeftHandPinky3
											{
												OFFSET 0.000000 2.842763 0.000000
												CHANNELS 3 Zrotation Yrotation Xrotation
												JOINT LeftHandPinky4
												{
													OFFSET 0.000000 2.639709 0.000000
													CHANNELS 3 Zrotation Yrotation Xrotation
													End Site
													{
														OFFSET 0.000000 0.000000 0.000000
													}
												}
											}
										}
									}
									JOINT LeftForeArmEnd
									{
										OFFSET 0.000000 0.000000 0.000000
										CHANNELS 3 Zrotation Yrotation Xrotation
										End Site
										{
											OFFSET 0.000000 0.000000 0.000000
										}
									}
								}
								JOINT LeftArmEnd
								{
									OFFSET 0.000000 0.000000 0.000000
									CHANNELS 3 Zrotation Yrotation Xrotation
									End Site
									{
										OFFSET 0.000000 0.000000 0.000000
									}
								}
							}
						}
					}
				}
			}
		}
	}
	JOINT RightUpLeg
	{
		OFFSET -11.289943 0.000000 0.000000
		CHANNELS 3 Zrotation Yrotation Xrotation
		JOINT RightLeg
		{
			OFFSET 0.000000 -38.200325 -0.000000
			CHANNELS 3 Zrotation Yrotation Xrotation
			JOINT RightFoot
			{
				OFFSET 0.000000 -39.900856 0.000000
				CHANNELS 3 Zrotation Yrotation Xrotation
				JOINT RightToeBase
				{
					OFFSET -0.000000 -0.000000 15.261641
					CHANNELS 3 Zrotation Yrotation Xrotation
					JOINT RightToeBaseEnd
					{
						OFFSET 0.000000 0.000000 7.370709
						CHANNELS 3 Zrotation Yrotation Xrotation
						End Site
						{
							OFFSET 0.000000 0.000000 0.000000
						}
					}
				}
				JOINT RightLegEnd
				{
					OFFSET 0.000000 0.000000 0.000000
					CHANNELS 3 Zrotation Yrotation Xrotation
					End Site
					{
						OFFSET 0.000000 0.000000 0.000000
					}
				}
			}
			JOINT RightUpLegEnd
			{
				OFFSET 0.000000 0.000000 0.000000
				CHANNELS 3 Zrotation Yrotation Xrotation
				End Site
				{
					OFFSET 0.000000 0.000000 0.000000
				}
			}
		}
	}
	JOINT LeftUpLeg
	{
		OFFSET 11.315661 0.000000 -0.000000
		CHANNELS 3 Zrotation Yrotation Xrotation
		JOINT LeftLeg
		{
			OFFSET -0.000000 -38.200325 0.000000
			CHANNELS 3 Zrotation Yrotation Xrotation
			JOINT LeftFoot
			{
				OFFSET -0.000000 -39.900856 0.000000
				CHANNELS 3 Zrotation Yrotation Xrotation
				JOINT LeftToeBase
				{
					OFFSET 0.000000 -0.000000 15.261641
					CHANNELS 3 Zrotation Yrotation Xrotation
					JOINT LeftToeBaseEnd
					{
						OFFSET 0.000000 -0.000000 7.539996
						CHANNELS 3 Zrotation Yrotation Xrotation
						End Site
						{
							OFFSET 0.000000 0.000000 0.000000
						}
					}
				}
				JOINT LeftLegEnd
				{
					OFFSET 0.000000 0.000000 0.000000
					CHANNELS 3 Zrotation Yrotation Xrotation
					End Site
					{
						OFFSET 0.000000 0.000000 0.000000
					}
				}
			}
			JOINT LeftUpLegEnd
			{
				OFFSET 0.000000 0.000000 0.000000
				CHANNELS 3 Zrotation Yrotation Xrotation
				End Site
				{
					OFFSET 0.000000 0.000000 0.000000
				}
			}
		}
	}
}
MOTION
Frames: 4
Frame Time: 0.016667
0.091440 88.258293 2.461285 0.591087 0.054731 -5.289962 -0.894396 0.077585 4.917545 0.540579 -0.020194 2.727550 -0.754458 1.518980 2.091917 -1.200527 -0.002934 0.961076 -0.477551 -0.707486 3.663242 -0.213349 -1.691374 -3.333384 0.887951 0.979295 -18.218142 0.000000 0.000000 0.000000 87.789825 0.278370 7.258331 70.678940 -29.497864 -1.598469 -0.079448 6.370740 29.306686 6.141445 15.736719 -6.800169 10.937046 -1.865515 39.738762 0.000000 0.000000 -26.639997 0.000000 0.000000 -18.499998 0.000000 0.000000 0.000000 14.860734 -0.000000 -8.017526 10.402515 0.000000 0.000000 10.402515 0.000000 0.000000 0.000000 0.000000 0.000000 13.780698 0.000000 -8.980714 9.646488 0.000000 0.000000 9.646488 0.000000 0.000000 0.000000 0.000000 0.000000 14.966226 0.000000 -8.723907 10.476359 0.000000 0.000000 10.476359 0.000000 0.000000 0.000000 0.000000 0.000000 15.341956 0.000000 -10.207614 10.739368 0.000000 0.000000 10.739368 0.000000 0.000000 0.000000 0.000000 0.000000 0.000000 0.000000 0.000000 0.000000 0.000000 0.000000 -87.421745 -0.431831 9.620141 -67.676926 35.027306 0.573211 -0.443448 -17.633209 37.900898 -4.304639 -13.952137 -9.979151 -10.637670 1.840800 39.870987 0.000000 0.000000 -25.919998 0.000000 0.000000 -18.000004 0.000000 0.000000 0.000000 -13.206237 -0.000000 -9.825010 -9.244366 0.000000 0.000000 -9.244366 0.000000 0.000000 0.000000 0.000000 0.000000 -13.057719 0.000000 -10.850152 -9.140406 0.000000 0.000000 -9.140406 0.000000 0.000000 0.000000 0.000000 0.000000 -16.311131 0.000000 -12.225805 -11.417791 0.000000 0.000000 -11.417791 0.000000 0.000000 0.000000 0.000000 0.000000 -18.581762 -0.000000 -14.176181 -13.007236 0.000000 0.000000 -13.007236 0.000000 0.000000 0.000000 0.000000 0.000000 0.000000 0.000000 0.000000 0.000000 0.000000 0.000000 -0.738288 13.323823 -3.318040 -0.187791 -0.468353 21.848417 -0.795142 -8.231097 14.033000 -0.601477 0.672234 -21.803326 0.000000 0.000000 0.000000 0.000000 0.000000 0.000000 0.000000 0.000000 0.000000 2.308090 3.191759 -1.134184 0.218986 0.500895 23.615168 -2.570842 12.892135 12.410583 1.030963 -0.656711 -22.198404 0.000000 0.000000 0.000000 0.000000 0.000000 0.000000 0.000000 0.000000 0.000000 
-0.156273 87.955429 2.246062 -0.125039 0.209094 -7.485505 0.523381 -0.083717 6.140007 -0.050904 -0.160167 5.646460 -0.177789 -1.304760 -1.680588 -1.004264 -0.553614 3.592798 -0.562776 0.328059 -0.086081 -1.126626 -0.076739 -5.621441 -0.364591 0.173746 -16.134918 0.000000 0.000000 0.000000 87.549049 0.509795 8.404328 66.912369 -35.129074 2.547003 0.215122 12.958243 26.993954 6.558475 13.758398 -7.766256 10.926445 -1.834801 39.765160 -0.000009 0.000022 -26.782940 0.000010 0.000039 -18.456892 0.000013 0.000006 -0.000034 14.362087 0.067949 -5.025382 9.697856 0.060930 -0.321860 9.869879 0.080349 -0.317691 -0.000012 0.000031 -0.000030 12.833729 0.072689 -6.663147 9.089362 0.013761 -0.117977 9.064169 0.025906 -0.101907 0.000016 -0.000097 0.000004 13.032904 -0.111704 -8.025975 9.575848 0.023493 0.100208 9.440011 -0.017414 0.087448 -0.000011 -0.000683 0.000003 12.791471 -0.299768 -10.417280 9.621903 0.020062 0.295993 9.292665 -0.073791 0.310717 0.000370 -0.000007 0.000027 0.000000 0.000000 0.000000 0.000000 0.000000 0.000000 -86.782379 -0.684822 8.785844 -66.897507 26.657553 0.503086 -1.465786 -12.668035 38.855186 -4.418264 -10.855643 -12.487568 -9.264735 1.676472 40.518364 0.000002 0.000019 -22.601973 0.000235 -0.000029 -15.641197 0.000000 -0.000004 0.000704 -11.608249 0.108827 -11.637510 -8.688060 0.011893 0.262080 -8.950455 0.038691 0.271139 0.000023 0.000585 0.000014 -11.858924 0.072889 -11.480957 -8.748717 -0.007531 0.093680 -8.486439 0.016167 0.090253 0.000099 -0.000063 0.000014 -15.829200 -0.087195 -10.155499 -10.999869 -0.004126 -0.160324 -10.763497 -0.024019 -0.113218 0.000236 0.000006 0.000010 -18.147188 -0.312005 -9.045580 -12.272150 0.015339 -0.328452 -12.212386 -0.052314 -0.307305 -0.000125 -0.000005 -0.000044 0.000000 0.000000 0.000000 0.000000 0.000000 0.000000 0.236151 7.678823 -1.351112 -0.228724 -0.305938 21.631020 -1.228756 -3.117617 15.966807 -0.508864 0.677960 -20.830215 0.000000 0.000000 0.000000 0.000000 0.000000 0.000000 0.000000 0.000000 0.000000 2.965748 3.923148 2.499244 0.216105 0.468189 21.664558 -1.755037 13.589024 15.330278 0.604218 -0.620972 -22.036896 0.000000 0.000000 0.000000 0.000000 0.000000 0.000000 0.000000 0.000000 0.000000 
-0.380110 87.969017 2.339211 -0.144090 0.442402 -7.497113 0.541070 -0.125678 6.054336 -0.067038 -0.201371 5.562872 -0.169801 -1.635232 -1.639934 -0.832555 -0.718457 3.619330 -0.104132 0.183903 -0.075018 -1.086885 -0.063687 -5.550378 -0.324441 0.194896 -16.280588 0.000000 0.000000 0.000000 87.635429 0.460491 8.270608 66.720284 -34.939831 2.428217 0.193484 13.173929 26.607986 6.708853 14.018173 -7.751144 10.878469 -1.835547 39.784950 -0.000008 0.000037 -26.689764 -0.000001 0.000031 -18.380394 0.000017 0.000002 -0.000036 14.427547 0.064671 -4.807049 9.498461 0.037469 -0.239015 9.638921 0.061244 -0.239184 -0.000004 0.000032 -0.000023 12.853470 0.070603 -6.395742 8.919465 0.004606 -0.082764 8.865785 0.018782 -0.072305 0.000015 -0.000111 0.000002 13.122675 -0.109858 -7.700037 9.419056 0.036273 0.056175 9.290323 -0.007125 0.052686 -0.000019 -0.000886 0.000006 12.910762 -0.289277 -10.062909 9.550543 0.060960 0.190776 9.201318 -0.043032 0.224129 0.000454 -0.000001 0.000011 0.000000 0.000000 0.000000 0.000000 0.000000 0.000000 -86.571587 -0.690718 8.719110 -67.206223 26.587921 0.002512 -1.437096 -12.056792 38.695461 -4.370769 -10.672583 -13.393281 -9.182208 1.670304 40.545719 -0.000007 0.000022 -22.469879 0.000217 -0.000021 -15.539624 0.000059 -0.000006 0.000814 -11.300656 0.106040 -11.412517 -8.502563 -0.009208 0.158921 -8.749554 0.018384 0.177160 0.000023 0.000599 0.000013 -11.433748 0.071819 -11.348354 -8.519784 -0.015053 0.050122 -8.284640 0.009034 0.054989 0.000134 -0.000058 -0.000039 -15.239439 -0.077982 -10.160736 -10.690413 0.008706 -0.099182 -10.484483 -0.013331 -0.064996 0.000501 0.000013 0.000007 -17.501146 -0.284903 -9.138020 -11.950804 0.051301 -0.148729 -11.922813 -0.022094 -0.166792 0.000078 0.000008 -0.000060 0.000000 0.000000 0.000000 0.000000 0.000000 0.000000 0.366518 7.222201 -1.207081 -0.219566 -0.305961 21.163334 -1.348089 -3.269774 15.906545 -0.533873 0.655680 -20.702404 0.000000 0.000000 0.000000 0.000000 0.000000 0.000000 0.000000 0.000000 0.000000 3.221696 3.827415 2.510601 0.225421 0.479287 21.443958 -1.975592 13.360581 15.510284 0.636408 -0.622189 -22.133972 0.000000 0.000000 0.000000 0.000000 0.000000 0.000000 0.000000 0.000000 0.000000 
-0.596134 87.988274 2.419403 -0.169073 0.612824 -7.496063 0.569056 -0.166934 6.014315 -0.135472 -0.238677 5.441457 -0.101344 -1.948531 -1.604133 -0.668767 -0.865804 3.683401 0.205316 0.091051 -0.172462 -1.068439 -0.013724 -5.553302 -0.297059 0.231817 -16.440311 0.000000 0.000000 0.000000 87.578354 0.396362 8.016244 66.810097 -34.351589 2.046585 0.179001 13.503872 26.656668 6.588931 13.996126 -7.763494 10.855324 -1.838018 39.792114 -0.000007 0.000039 -26.650414 -0.000004 0.000033 -18.344978 0.000016 0.000001 -0.000033 14.492363 0.060521 -4.460010 9.335518 0.019561 -0.163387 9.458985 0.044937 -0.168793 -0.000002 0.000028 -0.000021 12.880363 0.068014 -6.040153 8.760928 -0.002571 -0.053812 8.692681 0.013200 -0.046802 0.000013 -0.000107 0.000005 13.120413 -0.106685 -7.333424 9.248834 0.045509 0.020679 9.133570 0.000225 0.023941 -0.000015 -0.001118 0.000010 12.959092 -0.271033 -9.715778 9.436954 0.088825 0.118853 9.076322 -0.022683 0.158468 0.000459 -0.000000 0.000006 0.000000 0.000000 0.000000 0.000000 0.000000 0.000000 -86.289726 -0.714626 8.619651 -67.655853 26.212816 -0.460629 -1.467391 -11.686413 38.597260 -4.536756 -10.182734 -13.949241 -9.126890 1.668328 40.558285 -0.000011 0.000021 -22.398029 0.000212 -0.000020 -15.477768 0.000158 -0.000008 0.000837 -11.055767 0.100046 -11.130424 -8.380827 -0.025574 0.069105 -8.623387 0.002714 0.094319 0.000023 0.000593 0.000015 -11.104311 0.069095 -11.159410 -8.365606 -0.020998 0.013901 -8.143185 0.003390 0.025309 0.000115 -0.000059 -0.000054 -14.709689 -0.070416 -10.070747 -10.447149 0.018762 -0.054940 -10.259174 -0.005568 -0.028229 0.000587 0.000010 0.000007 -16.905519 -0.259324 -9.107622 -11.679073 0.074647 -0.024196 -11.667787 -0.001682 -0.062118 0.000270 0.000006 -0.000062 0.000000 0.000000 0.000000 0.000000 0.000000 0.000000 0.506599 6.699176 -1.001536 -0.207611 -0.299833 20.588755 -1.512579 -3.483026 15.937120 -0.550366 0.629084 -20.610043 0.000000 0.000000 0.000000 0.000000 0.000000 0.000000 0.000000 0.000000 0.000000 3.497094 3.782315 2.543215 0.233037 0.501092 21.161123 -2.096705 13.033213 15.704970 0.670855 -0.615929 -22.246487 0.000000 0.000000 0.000000 0.000000 0.000000 0.000000 0.000000 0.000000 0.000000 
